# xmcd CD database file
#
# Track frame offsets:
#	150
#	18687
#	32520
#	52032
#	72507
#	90080
#	107422
#	122405
#	137157
#	148230
#	167650
#
# Disc length: 2415 seconds
#
# Revision: 6
# Processed by: cddbd v1.5.2PL0 Copyright (c) Steve Scherf et al.
# Submitted via: CDex 1.51
#
DISCID=92096d0b
DTITLE=Lightnin' Hopkins - Blues In My Bottle
DYEAR=1961
DGENRE=Blues
TTITLE0=Buddy Brown's Blues
TTITLE1=Wine Spodee-O-Dee
TTITLE2=Sail On, Little Girl, Sail On
TTITLE3=DC-7
TTITLE4=Death Bells
TTITLE5=Goin' To Dallas To See My Pony Run
TTITLE6=Jailhouse Blues
TTITLE7=Blues In The Bottle
TTITLE8=Beans, Beans, Beans
TTITLE9=Catfish Blues
TTITLE10=My Grandpa Is Old Too!
EXTD=YEAR: 1961
EXTT0=
EXTT1=
EXTT2=
EXTT3=
EXTT4=
EXTT5=
EXTT6=
EXTT7=
EXTT8=
EXTT9=
EXTT10=
PLAYORDER=
